<?xml version="1.0" encoding="iso-8859-1"?>
<!-- Generator: Adobe Illustrator 19.0.0, SVG Export Plug-In . SVG Version: 6.00 Build 0)  -->
<svg version="1.1" id="Layer_1" xmlns="http://www.w3.org/2000/svg" xmlns:xlink="http://www.w3.org/1999/xlink" x="0px" y="0px"
	 viewBox="0 0 512 512" style="enable-background:new 0 0 512 512;" xml:space="preserve">
<path style="fill:#C03A2B;" d="M496.931,512H256V0h240.931C505.256,0,512,6.744,512,15.069v481.863
	C512,505.256,505.256,512,496.931,512"/>
<path style="fill:#E64C3C;" d="M256,512H15.069C6.744,512,0,505.256,0,496.931V15.069C0,6.744,6.744,0,15.069,0H256V512z"/>
<path style="fill:#90BAE1;" d="M220.69,128c0,51.191-41.498,92.69-92.69,92.69S35.31,179.191,35.31,128S76.809,35.31,128,35.31
	S220.69,76.809,220.69,128"/>
<path style="fill:#464F5D;" d="M128,229.517c-55.976,0-101.517-45.542-101.517-101.517S72.024,26.483,128,26.483
	S229.517,72.024,229.517,128S183.976,229.517,128,229.517z M128,44.138c-46.239,0-83.862,37.623-83.862,83.862
	S81.761,211.862,128,211.862s83.862-37.623,83.862-83.862S174.239,44.138,128,44.138z"/>
<g>
	<path style="fill:#F0C419;" d="M211.862,335.448c-4.873,0-8.828-3.955-8.828-8.828v-35.31c0-4.873,3.955-8.828,8.828-8.828
		c4.873,0,8.828,3.955,8.828,8.828v35.31C220.69,331.493,216.735,335.448,211.862,335.448"/>
	<path style="fill:#F0C419;" d="M291.31,335.448c-4.873,0-8.828-3.955-8.828-8.828v-35.31c0-4.873,3.955-8.828,8.828-8.828
		c4.873,0,8.828,3.955,8.828,8.828v35.31C300.138,331.493,296.183,335.448,291.31,335.448"/>
</g>
<path style="fill:#90BAE1;" d="M185.379,128c0,31.691-25.688,57.379-57.379,57.379S70.621,159.691,70.621,128
	S96.309,70.621,128,70.621S185.379,96.309,185.379,128"/>
<path style="fill:#464F5D;" d="M128,194.207c-36.511,0-66.207-29.696-66.207-66.207S91.489,61.793,128,61.793
	S194.207,91.489,194.207,128S164.511,194.207,128,194.207z M128,79.448c-26.774,0-48.552,21.778-48.552,48.552
	s21.778,48.552,48.552,48.552s48.552-21.778,48.552-48.552S154.774,79.448,128,79.448z"/>
<path style="fill:#FFFFFF;" d="M105.931,136.828c-4.873,0-8.828-3.955-8.828-8.828c0-17.037,13.859-30.897,30.897-30.897
	c4.873,0,8.828,3.955,8.828,8.828c0,4.873-3.955,8.828-8.828,8.828c-7.3,0-13.241,5.941-13.241,13.241
	C114.759,132.873,110.804,136.828,105.931,136.828"/>
<path style="fill:#90BAE1;" d="M476.69,128c0,51.191-41.499,92.69-92.69,92.69s-92.69-41.498-92.69-92.69S332.809,35.31,384,35.31
	S476.69,76.809,476.69,128"/>
<path style="fill:#464F5D;" d="M384,229.517c-55.976,0-101.517-45.542-101.517-101.517S328.024,26.483,384,26.483
	S485.517,72.024,485.517,128S439.976,229.517,384,229.517z M384,44.138c-46.239,0-83.862,37.623-83.862,83.862
	s37.623,83.862,83.862,83.862s83.862-37.623,83.862-83.862S430.239,44.138,384,44.138z"/>
<path style="fill:#90BAE1;" d="M441.379,128c0,31.691-25.688,57.379-57.379,57.379S326.621,159.691,326.621,128
	S352.309,70.621,384,70.621S441.379,96.309,441.379,128"/>
<path style="fill:#464F5D;" d="M384,194.207c-36.511,0-66.207-29.696-66.207-66.207S347.489,61.793,384,61.793
	S450.207,91.489,450.207,128S420.511,194.207,384,194.207z M384,79.448c-26.765,0-48.552,21.778-48.552,48.552
	s21.786,48.552,48.552,48.552s48.552-21.778,48.552-48.552S410.765,79.448,384,79.448z"/>
<path style="fill:#FFFFFF;" d="M361.931,136.828c-4.873,0-8.828-3.955-8.828-8.828c0-17.037,13.859-30.897,30.897-30.897
	c4.873,0,8.828,3.955,8.828,8.828c0,4.873-3.955,8.828-8.828,8.828c-7.3,0-13.241,5.941-13.241,13.241
	C370.759,132.873,366.804,136.828,361.931,136.828"/>
<polygon style="fill:#F0C419;" points="0,467.862 512,467.862 512,450.207 0,450.207 "/>
<g>
</g>
<g>
</g>
<g>
</g>
<g>
</g>
<g>
</g>
<g>
</g>
<g>
</g>
<g>
</g>
<g>
</g>
<g>
</g>
<g>
</g>
<g>
</g>
<g>
</g>
<g>
</g>
<g>
</g>
</svg>
