<?xml version="1.0" encoding="iso-8859-1"?>
<!-- Generator: Adobe Illustrator 19.0.0, SVG Export Plug-In . SVG Version: 6.00 Build 0)  -->
<svg version="1.1" id="Layer_1" xmlns="http://www.w3.org/2000/svg" xmlns:xlink="http://www.w3.org/1999/xlink" x="0px" y="0px"
	 viewBox="0 0 512 512" style="enable-background:new 0 0 512 512;" xml:space="preserve">
<g>
	<g>
		<path style="fill:#BDC3C7;" d="M203.932,512c-4.79,0-8.678-3.888-8.678-8.678v-86.78c0-4.79,3.888-8.678,8.678-8.678
			s8.678,3.888,8.678,8.678v86.78C212.61,508.112,208.722,512,203.932,512L203.932,512z"/>
		<path style="fill:#BDC3C7;" d="M308.067,512c-4.79,0-8.678-3.888-8.678-8.678v-86.78c0-4.79,3.888-8.678,8.678-8.678
			s8.678,3.888,8.678,8.678v86.78C316.745,508.112,312.858,512,308.067,512"/>
		<path style="fill:#BDC3C7;" d="M438.237,0H73.762c-23.96,0-43.39,19.43-43.39,43.39v234.305h155.414l-0.816-8.999
			c-3.801-41.767,29.089-77.781,71.029-77.781s74.83,36.014,71.029,77.781l-0.816,8.999h155.414V43.39
			C481.627,19.43,462.197,0,438.237,0"/>
		<path style="fill:#BDC3C7;" d="M56.406,503.322L56.406,503.322c-9.589,0-17.356-7.767-17.356-17.356V329.763h34.712v156.203
			C73.762,495.555,65.995,503.322,56.406,503.322"/>
		<path style="fill:#BDC3C7;" d="M455.593,503.322L455.593,503.322c9.589,0,17.356-7.767,17.356-17.356V329.763h-34.712v156.203
			C438.237,495.555,446.004,503.322,455.593,503.322"/>
	</g>
	<g>
		<path style="fill:#38454F;" d="M108.474,52.068c0-14.379-11.655-26.034-26.034-26.034S56.406,37.688,56.406,52.068
			S68.061,78.102,82.44,78.102S108.474,66.447,108.474,52.068"/>
		<path style="fill:#38454F;" d="M195.254,52.068c0-14.379-11.655-26.034-26.034-26.034c-14.379,0-26.034,11.655-26.034,26.034
			s11.655,26.034,26.034,26.034C183.599,78.102,195.254,66.447,195.254,52.068"/>
		<path style="fill:#38454F;" d="M282.033,52.068c0-14.379-11.655-26.034-26.034-26.034s-26.034,11.655-26.034,26.034
			S241.62,78.102,256,78.102S282.033,66.447,282.033,52.068"/>
		<path style="fill:#38454F;" d="M368.813,52.068c0-14.379-11.655-26.034-26.034-26.034c-14.379,0-26.034,11.655-26.034,26.034
			s11.654,26.034,26.034,26.034C357.159,78.102,368.813,66.447,368.813,52.068"/>
		<path style="fill:#38454F;" d="M455.593,52.068c0-14.379-11.654-26.034-26.034-26.034c-14.379,0-26.034,11.655-26.034,26.034
			s11.654,26.034,26.034,26.034C443.938,78.102,455.593,66.447,455.593,52.068"/>
		<path style="fill:#38454F;" d="M108.474,138.847c0-14.379-11.655-26.034-26.034-26.034s-26.034,11.655-26.034,26.034
			s11.655,26.034,26.034,26.034S108.474,153.227,108.474,138.847"/>
		<path style="fill:#38454F;" d="M108.474,225.627c0-14.379-11.655-26.034-26.034-26.034s-26.034,11.655-26.034,26.034
			c0,14.379,11.655,26.034,26.034,26.034S108.474,240.007,108.474,225.627"/>
		<path style="fill:#38454F;" d="M455.593,138.847c0-14.379-11.654-26.034-26.034-26.034c-14.379,0-26.034,11.655-26.034,26.034
			s11.654,26.034,26.034,26.034C443.938,164.881,455.593,153.227,455.593,138.847"/>
		<path style="fill:#38454F;" d="M455.593,225.627c0-14.379-11.654-26.034-26.034-26.034c-14.379,0-26.034,11.655-26.034,26.034
			c0,14.379,11.654,26.034,26.034,26.034C443.938,251.661,455.593,240.007,455.593,225.627"/>
	</g>
	<path style="fill:#E64C3C;" d="M316.745,381.831H195.254L184.97,268.696c-3.801-41.767,29.089-77.781,71.029-77.781
		s74.83,36.014,71.029,77.781L316.745,381.831z"/>
	<g>
		<path style="fill:#C93D32;" d="M219.53,274.229c-4.443,0-8.227-3.384-8.635-7.897c-1.163-12.826,2.977-25.123,11.663-34.634
			c8.687-9.511,20.558-14.753,33.445-14.753c4.79,0,8.678,3.888,8.678,8.678c0,4.799-3.888,8.678-8.678,8.678
			c-7.949,0-15.273,3.228-20.628,9.103c-5.363,5.866-7.914,13.451-7.194,21.365c0.434,4.764-3.089,8.99-7.862,9.424
			C220.059,274.22,219.79,274.229,219.53,274.229"/>
		<polygon style="fill:#C93D32;" points="195.254,416.542 316.745,416.542 316.745,381.831 195.254,381.831 		"/>
	</g>
	<path style="fill:#8697CB;" d="M134.508,104.136v173.559h51.278l-0.816-8.999c-3.801-41.767,29.089-77.781,71.029-77.781
		s74.83,36.014,71.029,77.781l-0.816,8.999h51.278V104.136H134.508z"/>
	<g>
		<path style="fill:#38454F;" d="M185.787,277.695H30.373c-14.379,0-26.034,11.655-26.034,26.034s11.655,26.034,26.034,26.034
			h160.143L185.787,277.695z"/>
		<path style="fill:#38454F;" d="M481.627,277.695H326.213l-4.738,52.068h160.152c14.379,0,26.034-11.655,26.034-26.034
			S496.006,277.695,481.627,277.695"/>
	</g>
</g>
<g>
</g>
<g>
</g>
<g>
</g>
<g>
</g>
<g>
</g>
<g>
</g>
<g>
</g>
<g>
</g>
<g>
</g>
<g>
</g>
<g>
</g>
<g>
</g>
<g>
</g>
<g>
</g>
<g>
</g>
</svg>
