<?xml version="1.0" encoding="iso-8859-1"?>
<!-- Generator: Adobe Illustrator 19.0.0, SVG Export Plug-In . SVG Version: 6.00 Build 0)  -->
<svg version="1.1" id="Layer_1" xmlns="http://www.w3.org/2000/svg" xmlns:xlink="http://www.w3.org/1999/xlink" x="0px" y="0px"
	 viewBox="0 0 512 512" style="enable-background:new 0 0 512 512;" xml:space="preserve">
<g>
	<polygon style="fill:#E64C3C;" points="0,459.034 353.103,459.034 353.103,52.966 0,52.966 	"/>
	<path style="fill:#EBECEC;" d="M353.103,80.34v351.32C442.315,422.797,512,347.542,512,256S442.315,89.203,353.103,80.34"/>
	<path style="fill:#AFB8BC;" d="M353.103,206.124v99.752c20.542-7.292,35.31-26.871,35.31-49.876S373.645,213.416,353.103,206.124"
		/>
	<g>
		<path style="fill:#F0C419;" d="M35.31,247.172c-4.873,0-8.828-3.955-8.828-8.828V88.276c0-4.873,3.955-8.828,8.828-8.828h52.966
			c4.873,0,8.828,3.955,8.828,8.828c0,4.873-3.955,8.828-8.828,8.828H44.138v141.241C44.138,243.218,40.183,247.172,35.31,247.172"
			/>
		<path style="fill:#F0C419;" d="M317.793,158.897c-4.873,0-8.828-3.955-8.828-8.828V97.103H176.552
			c-4.873,0-8.828-3.955-8.828-8.828c0-4.873,3.955-8.828,8.828-8.828h141.241c4.873,0,8.828,3.955,8.828,8.828v61.793
			C326.621,154.942,322.666,158.897,317.793,158.897"/>
		<path style="fill:#F0C419;" d="M176.552,432.552H35.31c-4.873,0-8.828-3.955-8.828-8.828v-97.103c0-4.873,3.955-8.828,8.828-8.828
			s8.828,3.955,8.828,8.828v88.276h132.414c4.873,0,8.828,3.955,8.828,8.828C185.379,428.597,181.425,432.552,176.552,432.552"/>
		<path style="fill:#F0C419;" d="M317.793,432.552h-52.966c-4.873,0-8.828-3.955-8.828-8.828c0-4.873,3.955-8.828,8.828-8.828
			h44.138V238.345c0-4.873,3.955-8.828,8.828-8.828c4.873,0,8.828,3.955,8.828,8.828v185.379
			C326.621,428.597,322.666,432.552,317.793,432.552"/>
	</g>
</g>
<g>
</g>
<g>
</g>
<g>
</g>
<g>
</g>
<g>
</g>
<g>
</g>
<g>
</g>
<g>
</g>
<g>
</g>
<g>
</g>
<g>
</g>
<g>
</g>
<g>
</g>
<g>
</g>
<g>
</g>
</svg>
