<?xml version="1.0" encoding="iso-8859-1"?>
<!-- Generator: Adobe Illustrator 19.0.0, SVG Export Plug-In . SVG Version: 6.00 Build 0)  -->
<svg version="1.1" id="Layer_1" xmlns="http://www.w3.org/2000/svg" xmlns:xlink="http://www.w3.org/1999/xlink" x="0px" y="0px"
	 viewBox="0 0 512.004 512.004" style="enable-background:new 0 0 512.004 512.004;" xml:space="preserve">
<g>
	<path style="fill:#1E222B;" d="M485.519,432.552c14.627,0,26.483-11.855,26.483-26.483V88.276V19.182
		C512.002,8.589,503.413,0,492.819,0H107.46C96.867,0,88.278,8.589,88.278,19.182v33.783h326.621l0,0l0,0
		c24.373,0,44.138,19.756,44.138,44.138l0,0l0,0v308.966C459.036,420.696,470.892,432.552,485.519,432.552"/>
	<path style="fill:#2C2F38;" d="M423.726,0v53.857c20.145,4.087,35.31,21.892,35.31,43.246l0,0l0,0v307.465
		c0,14.345,10.734,27.198,25.062,27.948c15.272,0.794,27.904-11.352,27.904-26.447V88.276V19.182C512.002,8.589,503.413,0,492.819,0
		H423.726z"/>
	<path style="fill:#464F5D;" d="M370.76,97.103c0-24.373,19.765-44.138,44.138-44.138H19.184c-10.593,0-19.182,8.589-19.182,19.182
		v420.67C0.002,503.411,8.591,512,19.184,512h332.394c10.593,0,19.182-8.589,19.182-19.182V97.103z"/>
	<g>
		<path style="fill:#2C2F38;" d="M88.278,512H19.184c-10.593,0-19.182-8.589-19.182-19.182V72.148
			c0-10.593,8.589-19.182,19.182-19.182h69.094V512z"/>
		<path style="fill:#2C2F38;" d="M370.76,492.821V97.107c0-21.336,15.13-39.133,35.24-43.246l0.071-0.892H282.485v459.034h69.094
			C362.171,512.004,370.76,503.414,370.76,492.821"/>
		<path style="fill:#2C2F38;" d="M414.898,494.345c-4.873,0-8.828-3.955-8.828-8.828V97.103c0-4.873,3.955-8.828,8.828-8.828
			s8.828,3.955,8.828,8.828v388.414C423.726,490.39,419.771,494.345,414.898,494.345"/>
	</g>
	<g>
		<path style="fill:#464F5D;" d="M52.967,97.103H35.312c-4.873,0-8.828-3.955-8.828-8.828c0-4.873,3.955-8.828,8.828-8.828h17.655
			c4.873,0,8.828,3.955,8.828,8.828C61.795,93.149,57.84,97.103,52.967,97.103"/>
		<path style="fill:#464F5D;" d="M52.967,132.414H35.312c-4.873,0-8.828-3.955-8.828-8.828s3.955-8.828,8.828-8.828h17.655
			c4.873,0,8.828,3.955,8.828,8.828S57.84,132.414,52.967,132.414"/>
		<path style="fill:#464F5D;" d="M52.967,167.724H35.312c-4.873,0-8.828-3.955-8.828-8.828c0-4.873,3.955-8.828,8.828-8.828h17.655
			c4.873,0,8.828,3.955,8.828,8.828C61.795,163.769,57.84,167.724,52.967,167.724"/>
		<path style="fill:#464F5D;" d="M52.967,203.034H35.312c-4.873,0-8.828-3.955-8.828-8.828s3.955-8.828,8.828-8.828h17.655
			c4.873,0,8.828,3.955,8.828,8.828S57.84,203.034,52.967,203.034"/>
		<path style="fill:#464F5D;" d="M52.967,238.345H35.312c-4.873,0-8.828-3.955-8.828-8.828s3.955-8.828,8.828-8.828h17.655
			c4.873,0,8.828,3.955,8.828,8.828S57.84,238.345,52.967,238.345"/>
		<path style="fill:#464F5D;" d="M52.967,273.655H35.312c-4.873,0-8.828-3.955-8.828-8.828S30.439,256,35.312,256h17.655
			c4.873,0,8.828,3.955,8.828,8.828S57.84,273.655,52.967,273.655"/>
		<path style="fill:#464F5D;" d="M52.967,308.966H35.312c-4.873,0-8.828-3.955-8.828-8.828c0-4.873,3.955-8.828,8.828-8.828h17.655
			c4.873,0,8.828,3.955,8.828,8.828C61.795,305.011,57.84,308.966,52.967,308.966"/>
		<path style="fill:#464F5D;" d="M52.967,344.276H35.312c-4.873,0-8.828-3.955-8.828-8.828s3.955-8.828,8.828-8.828h17.655
			c4.873,0,8.828,3.955,8.828,8.828S57.84,344.276,52.967,344.276"/>
		<path style="fill:#464F5D;" d="M52.967,379.586H35.312c-4.873,0-8.828-3.955-8.828-8.828c0-4.873,3.955-8.828,8.828-8.828h17.655
			c4.873,0,8.828,3.955,8.828,8.828C61.795,375.631,57.84,379.586,52.967,379.586"/>
		<path style="fill:#464F5D;" d="M52.967,414.897H35.312c-4.873,0-8.828-3.955-8.828-8.828s3.955-8.828,8.828-8.828h17.655
			c4.873,0,8.828,3.955,8.828,8.828S57.84,414.897,52.967,414.897"/>
		<path style="fill:#464F5D;" d="M52.967,450.207H35.312c-4.873,0-8.828-3.955-8.828-8.828s3.955-8.828,8.828-8.828h17.655
			c4.873,0,8.828,3.955,8.828,8.828S57.84,450.207,52.967,450.207"/>
		<path style="fill:#464F5D;" d="M52.967,485.517H35.312c-4.873,0-8.828-3.955-8.828-8.828c0-4.873,3.955-8.828,8.828-8.828h17.655
			c4.873,0,8.828,3.955,8.828,8.828C61.795,481.562,57.84,485.517,52.967,485.517"/>
		<path style="fill:#464F5D;" d="M335.45,97.103h-17.655c-4.873,0-8.828-3.955-8.828-8.828c0-4.873,3.955-8.828,8.828-8.828h17.655
			c4.873,0,8.828,3.955,8.828,8.828C344.278,93.149,340.323,97.103,335.45,97.103"/>
		<path style="fill:#464F5D;" d="M335.45,132.414h-17.655c-4.873,0-8.828-3.955-8.828-8.828s3.955-8.828,8.828-8.828h17.655
			c4.873,0,8.828,3.955,8.828,8.828S340.323,132.414,335.45,132.414"/>
		<path style="fill:#464F5D;" d="M335.45,167.724h-17.655c-4.873,0-8.828-3.955-8.828-8.828c0-4.873,3.955-8.828,8.828-8.828h17.655
			c4.873,0,8.828,3.955,8.828,8.828C344.278,163.769,340.323,167.724,335.45,167.724"/>
		<path style="fill:#464F5D;" d="M335.45,203.034h-17.655c-4.873,0-8.828-3.955-8.828-8.828s3.955-8.828,8.828-8.828h17.655
			c4.873,0,8.828,3.955,8.828,8.828S340.323,203.034,335.45,203.034"/>
		<path style="fill:#464F5D;" d="M335.45,238.345h-17.655c-4.873,0-8.828-3.955-8.828-8.828s3.955-8.828,8.828-8.828h17.655
			c4.873,0,8.828,3.955,8.828,8.828S340.323,238.345,335.45,238.345"/>
		<path style="fill:#464F5D;" d="M335.45,273.655h-17.655c-4.873,0-8.828-3.955-8.828-8.828s3.955-8.828,8.828-8.828h17.655
			c4.873,0,8.828,3.955,8.828,8.828S340.323,273.655,335.45,273.655"/>
		<path style="fill:#464F5D;" d="M335.45,308.966h-17.655c-4.873,0-8.828-3.955-8.828-8.828c0-4.873,3.955-8.828,8.828-8.828h17.655
			c4.873,0,8.828,3.955,8.828,8.828C344.278,305.011,340.323,308.966,335.45,308.966"/>
		<path style="fill:#464F5D;" d="M335.45,344.276h-17.655c-4.873,0-8.828-3.955-8.828-8.828s3.955-8.828,8.828-8.828h17.655
			c4.873,0,8.828,3.955,8.828,8.828S340.323,344.276,335.45,344.276"/>
		<path style="fill:#464F5D;" d="M335.45,379.586h-17.655c-4.873,0-8.828-3.955-8.828-8.828c0-4.873,3.955-8.828,8.828-8.828h17.655
			c4.873,0,8.828,3.955,8.828,8.828C344.278,375.631,340.323,379.586,335.45,379.586"/>
		<path style="fill:#464F5D;" d="M335.45,414.897h-17.655c-4.873,0-8.828-3.955-8.828-8.828s3.955-8.828,8.828-8.828h17.655
			c4.873,0,8.828,3.955,8.828,8.828S340.323,414.897,335.45,414.897"/>
		<path style="fill:#464F5D;" d="M335.45,450.207h-17.655c-4.873,0-8.828-3.955-8.828-8.828s3.955-8.828,8.828-8.828h17.655
			c4.873,0,8.828,3.955,8.828,8.828S340.323,450.207,335.45,450.207"/>
		<path style="fill:#464F5D;" d="M335.45,485.517h-17.655c-4.873,0-8.828-3.955-8.828-8.828c0-4.873,3.955-8.828,8.828-8.828h17.655
			c4.873,0,8.828,3.955,8.828,8.828C344.278,481.562,340.323,485.517,335.45,485.517"/>
		<path style="fill:#464F5D;" d="M476.691,44.138h-17.655c-4.873,0-8.828-3.955-8.828-8.828s3.955-8.828,8.828-8.828h17.655
			c4.873,0,8.828,3.955,8.828,8.828S481.564,44.138,476.691,44.138"/>
	</g>
	<g>
		<polygon style="fill:#2C2F38;" points="132.416,344.276 238.347,344.276 238.347,220.69 132.416,220.69 		"/>
		<polygon style="fill:#2C2F38;" points="132.416,158.897 238.347,158.897 238.347,52.966 132.416,52.966 		"/>
		<polygon style="fill:#2C2F38;" points="132.416,512 238.347,512 238.347,406.069 132.416,406.069 		"/>
	</g>
	<g>
		<path style="fill:#464F5D;" d="M476.691,61.793h-26.483c-2.322,0-4.396,0.945-5.976,2.41c4.696,4.184,8.404,9.401,10.964,15.245
			h21.495c4.873,0,8.828-3.955,8.828-8.828S481.564,61.793,476.691,61.793"/>
		<path style="fill:#464F5D;" d="M476.691,97.103h-17.655v17.655h17.655c4.873,0,8.828-3.955,8.828-8.828
			C485.519,101.058,481.564,97.103,476.691,97.103"/>
		<path style="fill:#464F5D;" d="M476.691,132.414h-17.655v17.655h17.655c4.873,0,8.828-3.955,8.828-8.828
			S481.564,132.414,476.691,132.414"/>
		<path style="fill:#464F5D;" d="M476.691,167.724h-17.655v17.655h17.655c4.873,0,8.828-3.955,8.828-8.828
			C485.519,171.679,481.564,167.724,476.691,167.724"/>
		<path style="fill:#464F5D;" d="M476.691,203.034h-17.655v17.655h17.655c4.873,0,8.828-3.955,8.828-8.828
			C485.519,206.989,481.564,203.034,476.691,203.034"/>
		<path style="fill:#464F5D;" d="M476.691,238.345h-17.655V256h17.655c4.873,0,8.828-3.955,8.828-8.828
			C485.519,242.3,481.564,238.345,476.691,238.345"/>
		<path style="fill:#464F5D;" d="M476.691,273.655h-17.655v17.655h17.655c4.873,0,8.828-3.955,8.828-8.828
			C485.519,277.61,481.564,273.655,476.691,273.655"/>
		<path style="fill:#464F5D;" d="M476.691,308.966h-17.655v17.655h17.655c4.873,0,8.828-3.955,8.828-8.828
			C485.519,312.92,481.564,308.966,476.691,308.966"/>
		<path style="fill:#464F5D;" d="M476.691,344.276h-17.655v17.655h17.655c4.873,0,8.828-3.955,8.828-8.828
			C485.519,348.231,481.564,344.276,476.691,344.276"/>
		<path style="fill:#464F5D;" d="M476.691,379.586h-17.655v17.655h17.655c4.873,0,8.828-3.955,8.828-8.828
			S481.564,379.586,476.691,379.586"/>
	</g>
</g>
<g>
</g>
<g>
</g>
<g>
</g>
<g>
</g>
<g>
</g>
<g>
</g>
<g>
</g>
<g>
</g>
<g>
</g>
<g>
</g>
<g>
</g>
<g>
</g>
<g>
</g>
<g>
</g>
<g>
</g>
</svg>
