<?xml version="1.0" encoding="iso-8859-1"?>
<!-- Generator: Adobe Illustrator 19.0.0, SVG Export Plug-In . SVG Version: 6.00 Build 0)  -->
<svg version="1.1" id="Layer_1" xmlns="http://www.w3.org/2000/svg" xmlns:xlink="http://www.w3.org/1999/xlink" x="0px" y="0px"
	 viewBox="0 0 512 512" style="enable-background:new 0 0 512 512;" xml:space="preserve">
<g>
	<polygon style="fill:#2C2F38;" points="123.586,388.414 388.414,388.414 388.414,123.586 123.586,123.586 	"/>
	<path style="fill:#F0C419;" d="M353.103,256c0-53.628-43.476-97.103-97.103-97.103S158.897,202.372,158.897,256
		s43.476,97.103,97.103,97.103S353.103,309.628,353.103,256"/>
	<path style="fill:#BF9D49;" d="M194.207,264.828c-4.873,0-8.828-3.955-8.828-8.828c0-38.938,31.682-70.621,70.621-70.621
		c4.873,0,8.828,3.955,8.828,8.828s-3.955,8.828-8.828,8.828c-29.21,0-52.966,23.755-52.966,52.966
		C203.034,260.873,199.08,264.828,194.207,264.828"/>
	<g>
		<polygon style="fill:#464F5D;" points="388.414,123.586 123.586,123.586 70.621,0 441.379,0 		"/>
		<polygon style="fill:#464F5D;" points="123.586,388.414 388.414,388.414 441.379,512 70.621,512 		"/>
		<polygon style="fill:#464F5D;" points="388.414,388.414 388.414,123.586 512,70.621 512,441.379 		"/>
		<polygon style="fill:#464F5D;" points="123.586,123.586 123.586,388.414 0,441.379 0,70.621 		"/>
	</g>
	<g>
		<path style="fill:#2C2F38;" d="M132.414,26.483H85.751c-1.236,0-2.401,0.265-3.469,0.724l7.256,16.931h42.876
			c4.873,0,8.828-3.955,8.828-8.828S137.287,26.483,132.414,26.483"/>
		<path style="fill:#2C2F38;" d="M141.241,61.793H100.89c-1.236,0-2.41,0.265-3.478,0.724l7.256,16.931h36.573
			c4.873,0,8.828-3.955,8.828-8.828S146.114,61.793,141.241,61.793"/>
	</g>
</g>
<g>
</g>
<g>
</g>
<g>
</g>
<g>
</g>
<g>
</g>
<g>
</g>
<g>
</g>
<g>
</g>
<g>
</g>
<g>
</g>
<g>
</g>
<g>
</g>
<g>
</g>
<g>
</g>
<g>
</g>
</svg>
