<?xml version="1.0" encoding="iso-8859-1"?>
<!-- Generator: Adobe Illustrator 19.0.0, SVG Export Plug-In . SVG Version: 6.00 Build 0)  -->
<svg version="1.1" id="Layer_1" xmlns="http://www.w3.org/2000/svg" xmlns:xlink="http://www.w3.org/1999/xlink" x="0px" y="0px"
	 viewBox="0 0 512.002 512.002" style="enable-background:new 0 0 512.002 512.002;" xml:space="preserve">
<g>
	<path style="fill:#B6B7B6;" d="M494.064,238.368c-61.352,15.704-125.325,7.742-180.109-20.48
		c-3.284,59.295-43.935,112.402-104.413,128.6c-3.61,0.971-7.23,1.66-10.84,2.33c6.1,56.285,45.789,105.728,103.759,121.256
		c75.343,20.198,152.797-24.523,172.985-99.866l36.555-136.43L494.064,238.368z"/>
	<g>
		<path style="fill:#D1D4D1;" d="M304.525,304.552c-3.928,0-7.962-0.556-12.103-1.66c-3.284-0.883-5.676-1.757-8.271-3.019
			c-4.378-2.145-6.197-7.433-4.061-11.811c2.145-4.37,7.433-6.206,11.802-4.061c1.554,0.759,2.931,1.254,5.094,1.836
			c12.014,3.24,21.795-0.918,31.788-13.427c3.046-3.805,8.589-4.423,12.403-1.395c3.814,3.046,4.431,8.598,1.395,12.412
			C331.352,297.481,318.596,304.552,304.525,304.552"/>
		<path style="fill:#D1D4D1;" d="M406.853,331.966c-3.937,0-7.971-0.547-12.103-1.66c-18.917-5.067-30.252-19.173-33.695-41.922
			c-0.733-4.82,2.578-9.322,7.389-10.055c4.829-0.733,9.322,2.578,10.055,7.406c2.41,15.819,8.828,24.302,20.815,27.516
			c12.058,3.222,21.813-0.927,31.779-13.427c3.046-3.796,8.598-4.423,12.403-1.386c3.814,3.037,4.431,8.598,1.395,12.403
			C433.671,324.895,420.915,331.966,406.853,331.966"/>
		<path style="fill:#D1D4D1;" d="M386.671,437.492c-3.496,0-6.806-2.092-8.192-5.535c-9.437-23.437-28.813-40.616-53.169-47.148
			c-24.382-6.506-49.761-1.324-69.632,14.248c-3.849,3.01-9.384,2.348-12.394-1.501c-3.01-3.831-2.339-9.384,1.501-12.394
			c24.285-19.041,55.305-25.388,85.089-17.399c29.767,7.971,53.451,28.972,64.989,57.6c1.818,4.52-0.371,9.666-4.891,11.485
			C388.887,437.289,387.775,437.492,386.671,437.492"/>
		<path style="fill:#D1D4D1;" d="M209.54,346.493L209.54,346.493c-75.352,20.189-152.797-24.523-172.985-99.875L0,110.187
			l28.363,7.265c79.863,20.445,164.617-2.269,223.567-59.904l20.93-20.471l36.555,136.43
			C329.604,248.859,284.884,326.304,209.54,346.493"/>
	</g>
	<g>
		<path style="fill:#B6B7B6;" d="M183.189,188.742c-0.441,0-0.892-0.026-1.333-0.097c-4.82-0.733-8.13-5.235-7.398-10.055
			c3.443-22.749,14.786-36.855,33.695-41.922c18.891-5.076,35.778,1.483,50.141,19.465c3.046,3.805,2.419,9.357-1.386,12.403
			c-3.822,3.046-9.366,2.419-12.412-1.386c-9.993-12.509-19.836-16.631-31.77-13.427c-12.006,3.213-18.414,11.697-20.824,27.516
			C191.24,185.608,187.479,188.742,183.189,188.742"/>
		<path style="fill:#B6B7B6;" d="M80.87,216.159c-0.441,0-0.883-0.026-1.324-0.097c-4.82-0.733-8.139-5.235-7.406-10.046
			c3.434-22.758,14.769-36.855,33.686-41.931c18.926-5.076,35.787,1.483,50.15,19.456c3.046,3.805,2.419,9.366-1.386,12.403
			c-3.822,3.054-9.375,2.419-12.412-1.386c-9.993-12.491-19.783-16.622-31.779-13.418c-12.006,3.213-18.414,11.697-20.815,27.507
			C88.929,213.026,85.16,216.159,80.87,216.159"/>
		<path style="fill:#B6B7B6;" d="M172.714,307.228c-21.398,0-42.258-7.124-59.683-20.771c-3.831-3.001-4.502-8.554-1.501-12.385
			c3.001-3.849,8.545-4.511,12.403-1.51c19.871,15.572,45.241,20.771,69.614,14.248c24.364-6.532,43.741-23.72,53.177-47.157
			c1.827-4.529,7-6.7,11.485-4.899c4.52,1.818,6.709,6.965,4.891,11.485c-11.52,28.637-35.204,49.638-64.98,57.618
			C189.69,306.116,181.154,307.228,172.714,307.228"/>
	</g>
</g>
<g>
</g>
<g>
</g>
<g>
</g>
<g>
</g>
<g>
</g>
<g>
</g>
<g>
</g>
<g>
</g>
<g>
</g>
<g>
</g>
<g>
</g>
<g>
</g>
<g>
</g>
<g>
</g>
<g>
</g>
</svg>
