<?xml version="1.0" encoding="iso-8859-1"?>
<!-- Generator: Adobe Illustrator 19.0.0, SVG Export Plug-In . SVG Version: 6.00 Build 0)  -->
<svg version="1.1" id="Layer_1" xmlns="http://www.w3.org/2000/svg" xmlns:xlink="http://www.w3.org/1999/xlink" x="0px" y="0px"
	 viewBox="0 0 512 512" style="enable-background:new 0 0 512 512;" xml:space="preserve">
<g>
	<path style="fill:#BDC3C7;" d="M494.618,441.379H17.382C7.777,441.379,0,433.593,0,423.998V317.519
		c0-9.596,7.777-17.382,17.382-17.382h477.237c9.596,0,17.382,7.786,17.382,17.382v106.478
		C512,433.593,504.214,441.379,494.618,441.379"/>
	<g>
		<path style="fill:#38454F;" d="M370.758,397.241c0,4.873-3.955,8.828-8.828,8.828s-8.828-3.955-8.828-8.828
			c0-4.873,3.955-8.828,8.828-8.828S370.758,392.369,370.758,397.241"/>
		<path style="fill:#38454F;" d="M406.068,397.241c0,4.873-3.955,8.828-8.828,8.828c-4.873,0-8.828-3.955-8.828-8.828
			c0-4.873,3.955-8.828,8.828-8.828C402.113,388.414,406.068,392.369,406.068,397.241"/>
		<path style="fill:#38454F;" d="M300.137,397.241c0,4.873-3.955,8.828-8.828,8.828c-4.873,0-8.828-3.955-8.828-8.828
			c0-4.873,3.955-8.828,8.828-8.828C296.182,388.414,300.137,392.369,300.137,397.241"/>
		<path style="fill:#38454F;" d="M335.447,397.241c0,4.873-3.955,8.828-8.828,8.828s-8.828-3.955-8.828-8.828
			c0-4.873,3.955-8.828,8.828-8.828S335.447,392.369,335.447,397.241"/>
		<path style="fill:#38454F;" d="M229.516,397.241c0,4.873-3.955,8.828-8.828,8.828c-4.873,0-8.828-3.955-8.828-8.828
			c0-4.873,3.955-8.828,8.828-8.828C225.562,388.414,229.516,392.369,229.516,397.241"/>
		<path style="fill:#38454F;" d="M264.827,397.241c0,4.873-3.955,8.828-8.828,8.828s-8.828-3.955-8.828-8.828
			c0-4.873,3.955-8.828,8.828-8.828S264.827,392.369,264.827,397.241"/>
		<path style="fill:#38454F;" d="M194.206,397.241c0,4.873-3.955,8.828-8.828,8.828c-4.873,0-8.828-3.955-8.828-8.828
			c0-4.873,3.955-8.828,8.828-8.828C190.251,388.414,194.206,392.369,194.206,397.241"/>
		<path style="fill:#38454F;" d="M441.378,397.241c0,4.873-3.955,8.828-8.828,8.828s-8.828-3.955-8.828-8.828
			c0-4.873,3.955-8.828,8.828-8.828S441.378,392.369,441.378,397.241"/>
		<path style="fill:#38454F;" d="M476.689,397.241c0,4.873-3.955,8.828-8.828,8.828c-4.873,0-8.828-3.955-8.828-8.828
			c0-4.873,3.955-8.828,8.828-8.828C472.734,388.414,476.689,392.369,476.689,397.241"/>
		<path style="fill:#38454F;" d="M388.413,370.759c0,4.873-3.955,8.828-8.828,8.828s-8.828-3.955-8.828-8.828
			c0-4.873,3.955-8.828,8.828-8.828S388.413,365.886,388.413,370.759"/>
		<path style="fill:#38454F;" d="M423.723,370.759c0,4.873-3.955,8.828-8.828,8.828c-4.873,0-8.828-3.955-8.828-8.828
			c0-4.873,3.955-8.828,8.828-8.828C419.768,361.931,423.723,365.886,423.723,370.759"/>
		<path style="fill:#38454F;" d="M317.792,370.759c0,4.873-3.955,8.828-8.828,8.828s-8.828-3.955-8.828-8.828
			c0-4.873,3.955-8.828,8.828-8.828S317.792,365.886,317.792,370.759"/>
		<path style="fill:#38454F;" d="M353.103,370.759c0,4.873-3.955,8.828-8.828,8.828c-4.873,0-8.828-3.955-8.828-8.828
			c0-4.873,3.955-8.828,8.828-8.828C349.148,361.931,353.103,365.886,353.103,370.759"/>
		<path style="fill:#38454F;" d="M247.172,370.759c0,4.873-3.955,8.828-8.828,8.828c-4.873,0-8.828-3.955-8.828-8.828
			c0-4.873,3.955-8.828,8.828-8.828C243.217,361.931,247.172,365.886,247.172,370.759"/>
		<path style="fill:#38454F;" d="M282.482,370.759c0,4.873-3.955,8.828-8.828,8.828s-8.828-3.955-8.828-8.828
			c0-4.873,3.955-8.828,8.828-8.828S282.482,365.886,282.482,370.759"/>
		<path style="fill:#38454F;" d="M211.861,370.759c0,4.873-3.955,8.828-8.828,8.828s-8.828-3.955-8.828-8.828
			c0-4.873,3.955-8.828,8.828-8.828S211.861,365.886,211.861,370.759"/>
		<path style="fill:#38454F;" d="M459.034,370.759c0,4.873-3.955,8.828-8.828,8.828c-4.873,0-8.828-3.955-8.828-8.828
			c0-4.873,3.955-8.828,8.828-8.828C455.079,361.931,459.034,365.886,459.034,370.759"/>
		<path style="fill:#38454F;" d="M476.689,353.103H176.551c-4.873,0-8.828-3.955-8.828-8.828c0-4.873,3.955-8.828,8.828-8.828
			h300.138c4.882,0,8.828,3.955,8.828,8.828C485.516,349.149,481.57,353.103,476.689,353.103"/>
		<polygon style="fill:#38454F;" points="35.309,397.241 141.24,397.241 141.24,344.276 35.309,344.276 		"/>
		<path style="fill:#38454F;" d="M112.328,494.345h-48.11c-6.215,0-11.255-5.041-11.255-11.255v-41.71h70.621v41.71
			C123.584,489.304,118.543,494.345,112.328,494.345"/>
		<path style="fill:#38454F;" d="M447.777,494.345h-48.11c-6.215,0-11.255-5.041-11.255-11.255v-41.71h70.621v41.71
			C459.032,489.304,453.991,494.345,447.777,494.345"/>
	</g>
	<polygon style="fill:#E64C3C;" points="141.24,300.138 423.723,300.138 423.723,17.655 141.24,17.655 	"/>
	<polygon style="fill:#F0C419;" points="88.275,300.138 141.24,300.138 141.24,17.655 88.275,17.655 	"/>
	<path style="fill:#EBECEC;" d="M388.413,158.897c0,58.5-47.431,105.931-105.931,105.931s-105.931-47.431-105.931-105.931
		S223.981,52.966,282.482,52.966S388.413,100.396,388.413,158.897"/>
	<path style="fill:#AFB8BC;" d="M317.792,158.897c0,19.5-15.81,35.31-35.31,35.31s-35.31-15.81-35.31-35.31s15.81-35.31,35.31-35.31
		S317.792,139.396,317.792,158.897"/>
</g>
<g>
</g>
<g>
</g>
<g>
</g>
<g>
</g>
<g>
</g>
<g>
</g>
<g>
</g>
<g>
</g>
<g>
</g>
<g>
</g>
<g>
</g>
<g>
</g>
<g>
</g>
<g>
</g>
<g>
</g>
</svg>
