<?xml version="1.0" encoding="iso-8859-1"?>
<!-- Generator: Adobe Illustrator 19.0.0, SVG Export Plug-In . SVG Version: 6.00 Build 0)  -->
<svg version="1.1" id="Layer_1" xmlns="http://www.w3.org/2000/svg" xmlns:xlink="http://www.w3.org/1999/xlink" x="0px" y="0px"
	 viewBox="0 0 512 512" style="enable-background:new 0 0 512 512;" xml:space="preserve">
<g>
	<path style="fill:#464F5D;" d="M493.065,512H18.935C8.483,512,0,503.526,0,493.065V18.935C0,8.474,8.483,0,18.935,0h474.13
		C503.526,0,512,8.474,512,18.935v474.13C512,503.526,503.526,512,493.065,512"/>
	<path style="fill:#2C2F38;" d="M88.278,512H18.937c-10.461,0-18.935-8.474-18.935-18.935V18.935C0.002,8.474,8.476,0,18.937,0
		h69.341V512z"/>
	<g>
		<path style="fill:#464F5D;" d="M52.967,52.966H35.312c-4.873,0-8.828-3.955-8.828-8.828s3.955-8.828,8.828-8.828h17.655
			c4.873,0,8.828,3.955,8.828,8.828S57.84,52.966,52.967,52.966"/>
		<path style="fill:#464F5D;" d="M52.967,88.276H35.312c-4.873,0-8.828-3.955-8.828-8.828c0-4.873,3.955-8.828,8.828-8.828h17.655
			c4.873,0,8.828,3.955,8.828,8.828C61.795,84.321,57.84,88.276,52.967,88.276"/>
		<path style="fill:#464F5D;" d="M52.967,123.586H35.312c-4.873,0-8.828-3.955-8.828-8.828s3.955-8.828,8.828-8.828h17.655
			c4.873,0,8.828,3.955,8.828,8.828S57.84,123.586,52.967,123.586"/>
		<path style="fill:#464F5D;" d="M52.967,158.897H35.312c-4.873,0-8.828-3.955-8.828-8.828c0-4.873,3.955-8.828,8.828-8.828h17.655
			c4.873,0,8.828,3.955,8.828,8.828C61.795,154.942,57.84,158.897,52.967,158.897"/>
		<path style="fill:#464F5D;" d="M52.967,194.207H35.312c-4.873,0-8.828-3.955-8.828-8.828s3.955-8.828,8.828-8.828h17.655
			c4.873,0,8.828,3.955,8.828,8.828S57.84,194.207,52.967,194.207"/>
		<path style="fill:#464F5D;" d="M52.967,229.517H35.312c-4.873,0-8.828-3.955-8.828-8.828c0-4.873,3.955-8.828,8.828-8.828h17.655
			c4.873,0,8.828,3.955,8.828,8.828C61.795,225.562,57.84,229.517,52.967,229.517"/>
		<path style="fill:#464F5D;" d="M52.967,264.828H35.312c-4.873,0-8.828-3.955-8.828-8.828c0-4.873,3.955-8.828,8.828-8.828h17.655
			c4.873,0,8.828,3.955,8.828,8.828C61.795,260.873,57.84,264.828,52.967,264.828"/>
		<path style="fill:#464F5D;" d="M52.967,300.138H35.312c-4.873,0-8.828-3.955-8.828-8.828c0-4.873,3.955-8.828,8.828-8.828h17.655
			c4.873,0,8.828,3.955,8.828,8.828C61.795,296.183,57.84,300.138,52.967,300.138"/>
		<path style="fill:#464F5D;" d="M52.967,335.448H35.312c-4.873,0-8.828-3.955-8.828-8.828s3.955-8.828,8.828-8.828h17.655
			c4.873,0,8.828,3.955,8.828,8.828S57.84,335.448,52.967,335.448"/>
		<path style="fill:#464F5D;" d="M52.967,370.759H35.312c-4.873,0-8.828-3.955-8.828-8.828c0-4.873,3.955-8.828,8.828-8.828h17.655
			c4.873,0,8.828,3.955,8.828,8.828C61.795,366.804,57.84,370.759,52.967,370.759"/>
		<path style="fill:#464F5D;" d="M52.967,406.069H35.312c-4.873,0-8.828-3.955-8.828-8.828c0-4.873,3.955-8.828,8.828-8.828h17.655
			c4.873,0,8.828,3.955,8.828,8.828C61.795,402.114,57.84,406.069,52.967,406.069"/>
		<path style="fill:#464F5D;" d="M52.967,441.379H35.312c-4.873,0-8.828-3.955-8.828-8.828s3.955-8.828,8.828-8.828h17.655
			c4.873,0,8.828,3.955,8.828,8.828S57.84,441.379,52.967,441.379"/>
		<path style="fill:#464F5D;" d="M52.967,476.69H35.312c-4.873,0-8.828-3.955-8.828-8.828c0-4.873,3.955-8.828,8.828-8.828h17.655
			c4.873,0,8.828,3.955,8.828,8.828C61.795,472.735,57.84,476.69,52.967,476.69"/>
	</g>
	<path style="fill:#2C2F38;" d="M493.065,512h-69.341V0h69.341C503.526,0,512,8.474,512,18.935v474.13
		C512,503.526,503.526,512,493.065,512"/>
	<g>
		<path style="fill:#464F5D;" d="M476.691,52.966h-17.655c-4.873,0-8.828-3.955-8.828-8.828s3.955-8.828,8.828-8.828h17.655
			c4.873,0,8.828,3.955,8.828,8.828S481.564,52.966,476.691,52.966"/>
		<path style="fill:#464F5D;" d="M476.691,88.276h-17.655c-4.873,0-8.828-3.955-8.828-8.828c0-4.873,3.955-8.828,8.828-8.828h17.655
			c4.873,0,8.828,3.955,8.828,8.828C485.519,84.321,481.564,88.276,476.691,88.276"/>
		<path style="fill:#464F5D;" d="M476.691,123.586h-17.655c-4.873,0-8.828-3.955-8.828-8.828s3.955-8.828,8.828-8.828h17.655
			c4.873,0,8.828,3.955,8.828,8.828S481.564,123.586,476.691,123.586"/>
		<path style="fill:#464F5D;" d="M476.691,158.897h-17.655c-4.873,0-8.828-3.955-8.828-8.828c0-4.873,3.955-8.828,8.828-8.828
			h17.655c4.873,0,8.828,3.955,8.828,8.828C485.519,154.942,481.564,158.897,476.691,158.897"/>
		<path style="fill:#464F5D;" d="M476.691,194.207h-17.655c-4.873,0-8.828-3.955-8.828-8.828s3.955-8.828,8.828-8.828h17.655
			c4.873,0,8.828,3.955,8.828,8.828S481.564,194.207,476.691,194.207"/>
		<path style="fill:#464F5D;" d="M476.691,229.517h-17.655c-4.873,0-8.828-3.955-8.828-8.828c0-4.873,3.955-8.828,8.828-8.828
			h17.655c4.873,0,8.828,3.955,8.828,8.828C485.519,225.562,481.564,229.517,476.691,229.517"/>
		<path style="fill:#464F5D;" d="M476.691,264.828h-17.655c-4.873,0-8.828-3.955-8.828-8.828c0-4.873,3.955-8.828,8.828-8.828
			h17.655c4.873,0,8.828,3.955,8.828,8.828C485.519,260.873,481.564,264.828,476.691,264.828"/>
		<path style="fill:#464F5D;" d="M476.691,300.138h-17.655c-4.873,0-8.828-3.955-8.828-8.828c0-4.873,3.955-8.828,8.828-8.828
			h17.655c4.873,0,8.828,3.955,8.828,8.828C485.519,296.183,481.564,300.138,476.691,300.138"/>
		<path style="fill:#464F5D;" d="M476.691,335.448h-17.655c-4.873,0-8.828-3.955-8.828-8.828s3.955-8.828,8.828-8.828h17.655
			c4.873,0,8.828,3.955,8.828,8.828S481.564,335.448,476.691,335.448"/>
		<path style="fill:#464F5D;" d="M476.691,370.759h-17.655c-4.873,0-8.828-3.955-8.828-8.828c0-4.873,3.955-8.828,8.828-8.828
			h17.655c4.873,0,8.828,3.955,8.828,8.828C485.519,366.804,481.564,370.759,476.691,370.759"/>
		<path style="fill:#464F5D;" d="M476.691,406.069h-17.655c-4.873,0-8.828-3.955-8.828-8.828c0-4.873,3.955-8.828,8.828-8.828
			h17.655c4.873,0,8.828,3.955,8.828,8.828C485.519,402.114,481.564,406.069,476.691,406.069"/>
		<path style="fill:#464F5D;" d="M476.691,441.379h-17.655c-4.873,0-8.828-3.955-8.828-8.828s3.955-8.828,8.828-8.828h17.655
			c4.873,0,8.828,3.955,8.828,8.828S481.564,441.379,476.691,441.379"/>
		<path style="fill:#464F5D;" d="M476.691,476.69h-17.655c-4.873,0-8.828-3.955-8.828-8.828c0-4.873,3.955-8.828,8.828-8.828h17.655
			c4.873,0,8.828,3.955,8.828,8.828C485.519,472.735,481.564,476.69,476.691,476.69"/>
	</g>
	<g>
		<path style="fill:#2C2F38;" d="M351.823,353.103H160.177c-10.452,0-18.935-8.474-18.935-18.935V177.832
			c0-10.461,8.483-18.935,18.935-18.935h191.647c10.461,0,18.935,8.474,18.935,18.935v156.337
			C370.759,344.629,362.284,353.103,351.823,353.103"/>
		<path style="fill:#2C2F38;" d="M351.823,105.931H160.177c-10.452,0-18.935-8.474-18.935-18.935V0h229.517v86.996
			C370.759,97.457,362.284,105.931,351.823,105.931"/>
		<path style="fill:#2C2F38;" d="M370.76,512H141.243v-86.996c0-10.461,8.474-18.935,18.935-18.935h191.647
			c10.461,0,18.935,8.474,18.935,18.935V512z"/>
	</g>
</g>
<g>
</g>
<g>
</g>
<g>
</g>
<g>
</g>
<g>
</g>
<g>
</g>
<g>
</g>
<g>
</g>
<g>
</g>
<g>
</g>
<g>
</g>
<g>
</g>
<g>
</g>
<g>
</g>
<g>
</g>
</svg>
