<?xml version="1.0" encoding="iso-8859-1"?>
<!-- Generator: Adobe Illustrator 19.0.0, SVG Export Plug-In . SVG Version: 6.00 Build 0)  -->
<svg version="1.1" id="Layer_1" xmlns="http://www.w3.org/2000/svg" xmlns:xlink="http://www.w3.org/1999/xlink" x="0px" y="0px"
	 viewBox="0 0 512 512" style="enable-background:new 0 0 512 512;" xml:space="preserve">
<g>
	<g>
		<path style="fill:#5A656E;" d="M17.655,44.138C7.91,44.138,0,52.039,0,61.793v388.414c0,9.754,7.91,17.655,17.655,17.655h229.517
			l-52.966-52.966l52.966-52.966l-52.966-52.966L247.172,256l-52.966-52.966l52.966-52.966l-52.966-52.966l52.966-52.966H17.655z"/>
		<path style="fill:#5A656E;" d="M494.345,44.138H300.138l-52.966,52.966l52.966,52.966l-52.966,52.966L300.138,256l-52.966,52.966
			l52.966,52.966l-52.966,52.966l52.966,52.966h194.207c9.746,0,17.655-7.901,17.655-17.655V61.793
			C512,52.039,504.09,44.138,494.345,44.138"/>
	</g>
	<g>
		<polygon style="fill:#41494F;" points="0,432.552 35.31,432.552 35.31,397.241 0,397.241 		"/>
		<polygon style="fill:#41494F;" points="70.621,432.552 123.586,432.552 123.586,397.241 70.621,397.241 		"/>
		<polygon style="fill:#41494F;" points="300.138,432.552 353.103,432.552 353.103,397.241 300.138,397.241 		"/>
		<polygon style="fill:#41494F;" points="388.414,432.552 441.379,432.552 441.379,397.241 388.414,397.241 		"/>
		<polygon style="fill:#41494F;" points="476.69,432.552 512,432.552 512,397.241 476.69,397.241 		"/>
		<polygon style="fill:#41494F;" points="0,114.759 35.31,114.759 35.31,79.448 0,79.448 		"/>
		<polygon style="fill:#41494F;" points="70.621,114.759 123.586,114.759 123.586,79.448 70.621,79.448 		"/>
		<polygon style="fill:#41494F;" points="300.138,114.759 353.103,114.759 353.103,79.448 300.138,79.448 		"/>
		<polygon style="fill:#41494F;" points="388.414,114.759 441.379,114.759 441.379,79.448 388.414,79.448 		"/>
		<polygon style="fill:#41494F;" points="476.69,114.759 512,114.759 512,79.448 476.69,79.448 		"/>
		<polygon style="fill:#41494F;" points="158.897,79.448 158.897,114.759 211.862,114.759 194.207,97.103 211.862,79.448 		"/>
		<polygon style="fill:#41494F;" points="158.897,397.241 158.897,432.552 211.862,432.552 194.207,414.897 211.862,397.241 		"/>
	</g>
</g>
<g>
</g>
<g>
</g>
<g>
</g>
<g>
</g>
<g>
</g>
<g>
</g>
<g>
</g>
<g>
</g>
<g>
</g>
<g>
</g>
<g>
</g>
<g>
</g>
<g>
</g>
<g>
</g>
<g>
</g>
</svg>
