<?xml version="1.0" encoding="iso-8859-1"?>
<!-- Generator: Adobe Illustrator 19.0.0, SVG Export Plug-In . SVG Version: 6.00 Build 0)  -->
<svg version="1.1" id="Layer_1" xmlns="http://www.w3.org/2000/svg" xmlns:xlink="http://www.w3.org/1999/xlink" x="0px" y="0px"
	 viewBox="0 0 512 512" style="enable-background:new 0 0 512 512;" xml:space="preserve">
<g>
	<path style="fill:#EEECDE;" d="M459.034,114.759H52.966c0,29.255-23.711,52.966-52.966,52.966v176.552
		c29.255,0,52.966,23.711,52.966,52.966h406.069c0-29.255,23.711-52.966,52.966-52.966V167.724
		C482.745,167.724,459.034,144.013,459.034,114.759"/>
	<path style="fill:#D2C1A3;" d="M88.276,344.276c0-19.5-15.81-35.31-35.31-35.31V203.034c19.5,0,35.31-15.81,35.31-35.31h335.448
		c0,19.5,15.81,35.31,35.31,35.31v105.931c-19.5,0-35.31,15.81-35.31,35.31H88.276z"/>
	<g>
		<path style="fill:#B2A186;" d="M406.069,238.345H220.69c-4.882,0-8.828-3.955-8.828-8.828s3.946-8.828,8.828-8.828h185.379
			c4.882,0,8.828,3.955,8.828,8.828S410.951,238.345,406.069,238.345"/>
		<path style="fill:#B2A186;" d="M167.724,238.345h-52.966c-4.882,0-8.828-3.955-8.828-8.828s3.946-8.828,8.828-8.828h52.966
			c4.882,0,8.828,3.955,8.828,8.828S172.606,238.345,167.724,238.345"/>
		<path style="fill:#B2A186;" d="M264.828,291.31H114.759c-4.882,0-8.828-3.955-8.828-8.828s3.946-8.828,8.828-8.828h150.069
			c4.882,0,8.828,3.955,8.828,8.828S269.709,291.31,264.828,291.31"/>
		<path style="fill:#B2A186;" d="M406.069,291.31h-88.285c-4.882,0-8.828-3.955-8.828-8.828s3.946-8.828,8.828-8.828h88.285
			c4.882,0,8.828,3.955,8.828,8.828S410.951,291.31,406.069,291.31"/>
	</g>
</g>
<g>
</g>
<g>
</g>
<g>
</g>
<g>
</g>
<g>
</g>
<g>
</g>
<g>
</g>
<g>
</g>
<g>
</g>
<g>
</g>
<g>
</g>
<g>
</g>
<g>
</g>
<g>
</g>
<g>
</g>
</svg>
