<?xml version="1.0" encoding="iso-8859-1"?>
<!-- Generator: Adobe Illustrator 19.0.0, SVG Export Plug-In . SVG Version: 6.00 Build 0)  -->
<svg version="1.1" id="Layer_1" xmlns="http://www.w3.org/2000/svg" xmlns:xlink="http://www.w3.org/1999/xlink" x="0px" y="0px"
	 viewBox="0 0 512 512" style="enable-background:new 0 0 512 512;" xml:space="preserve">
<g>
	<path style="fill:#535D73;" d="M512,123.586v264.828c0,9.754-7.901,17.655-17.655,17.655H17.655C7.901,406.069,0,398.168,0,388.414
		V123.586c0-9.754,7.901-17.655,17.655-17.655h476.69C504.099,105.931,512,113.832,512,123.586"/>
	<polygon style="fill:#6B7B9A;" points="52.966,353.103 459.034,353.103 459.034,158.897 52.966,158.897 	"/>
	<polygon style="fill:#394151;" points="194.207,308.966 317.793,308.966 317.793,211.862 194.207,211.862 	"/>
	<g>
		<path style="fill:#6B7B9A;" d="M238.345,282.483c-4.873,0-8.828-3.955-8.828-8.828v-26.483c0-4.873,3.955-8.828,8.828-8.828
			c4.873,0,8.828,3.955,8.828,8.828v26.483C247.172,278.528,243.218,282.483,238.345,282.483"/>
		<path style="fill:#6B7B9A;" d="M273.655,282.483c-4.873,0-8.828-3.955-8.828-8.828v-26.483c0-4.873,3.955-8.828,8.828-8.828
			c4.873,0,8.828,3.955,8.828,8.828v26.483C282.483,278.528,278.528,282.483,273.655,282.483"/>
	</g>
	<path style="fill:#394151;" d="M52.966,158.897v194.207c53.628,0,97.103-43.476,97.103-97.103S106.593,158.897,52.966,158.897"/>
	<path style="fill:#6B7B9A;" d="M79.448,229.517H52.966v52.966h26.483c14.566,0,26.483-11.917,26.483-26.483
		S94.014,229.517,79.448,229.517"/>
	<path style="fill:#394151;" d="M459.034,158.897v194.207c-53.628,0-97.103-43.476-97.103-97.103S405.407,158.897,459.034,158.897"
		/>
	<path style="fill:#6B7B9A;" d="M432.552,229.517h26.483v52.966h-26.483c-14.566,0-26.483-11.917-26.483-26.483
		S417.986,229.517,432.552,229.517"/>
</g>
<g>
</g>
<g>
</g>
<g>
</g>
<g>
</g>
<g>
</g>
<g>
</g>
<g>
</g>
<g>
</g>
<g>
</g>
<g>
</g>
<g>
</g>
<g>
</g>
<g>
</g>
<g>
</g>
<g>
</g>
</svg>
