<?xml version="1.0" encoding="iso-8859-1"?>
<!-- Generator: Adobe Illustrator 19.0.0, SVG Export Plug-In . SVG Version: 6.00 Build 0)  -->
<svg version="1.1" id="Layer_1" xmlns="http://www.w3.org/2000/svg" xmlns:xlink="http://www.w3.org/1999/xlink" x="0px" y="0px"
	 viewBox="0 0 512 512" style="enable-background:new 0 0 512 512;" xml:space="preserve">
<g>
	<path style="fill:#464F5D;" d="M494.345,512H17.655C7.901,512,0,504.099,0,494.345V17.655C0,7.901,7.901,0,17.655,0h476.69
		C504.099,0,512,7.901,512,17.655v476.69C512,504.099,504.099,512,494.345,512"/>
	<g>
		<path style="fill:#2C2F38;" d="M494.345,512H17.655C7.901,512,0,504.099,0,494.345v-70.621h512v70.621
			C512,504.099,504.099,512,494.345,512"/>
		<polygon style="fill:#2C2F38;" points="220.69,273.655 220.69,167.724 308.966,220.69 		"/>
	</g>
	<path style="fill:#26B99A;" d="M35.31,494.345c-4.882,0-8.828-3.955-8.828-8.828v-35.31c0-4.873,3.946-8.828,8.828-8.828
		s8.828,3.955,8.828,8.828v35.31C44.138,490.39,40.192,494.345,35.31,494.345"/>
	<path style="fill:#CC4B4C;" d="M61.793,494.345c-4.882,0-8.828-3.955-8.828-8.828v-35.31c0-4.873,3.946-8.828,8.828-8.828
		s8.828,3.955,8.828,8.828v35.31C70.621,490.39,66.675,494.345,61.793,494.345"/>
	<path style="fill:#464F5D;" d="M476.69,476.69H97.103c-4.882,0-8.828-3.955-8.828-8.828s3.946-8.828,8.828-8.828H476.69
		c4.882,0,8.828,3.955,8.828,8.828S481.571,476.69,476.69,476.69"/>
</g>
<g>
</g>
<g>
</g>
<g>
</g>
<g>
</g>
<g>
</g>
<g>
</g>
<g>
</g>
<g>
</g>
<g>
</g>
<g>
</g>
<g>
</g>
<g>
</g>
<g>
</g>
<g>
</g>
<g>
</g>
</svg>
